<?xml version="1.0" encoding="iso-8859-1"?>
<!-- Generator: Adobe Illustrator 19.0.0, SVG Export Plug-In . SVG Version: 6.00 Build 0)  -->
<svg version="1.1" id="Capa_1" xmlns="http://www.w3.org/2000/svg" xmlns:xlink="http://www.w3.org/1999/xlink" x="0px" y="0px"
	 viewBox="0 0 512 512" style="enable-background:new 0 0 512 512;" xml:space="preserve">
<path style="fill:#F44336;" d="M448,333.855c-1.067-61.461-16.512-135.915-112.533-183.467c-5.282-2.608-11.679-0.441-14.287,4.841
	c-0.982,1.988-1.32,4.234-0.966,6.423c3.484,16.803-0.936,34.276-11.989,47.403c-11.236,12.349-26.234,20.643-42.667,23.595
	c7.895-15.95,11.928-33.532,11.776-51.328c0-48.128-42.667-110.144-44.011-111.851c-10.457-18.104-17.249-38.089-19.989-58.816
	c-0.012-5.891-4.798-10.657-10.689-10.644c-2.774,0.006-5.437,1.092-7.423,3.028c-48.235,47.104-160,156.331-123.264,327.253
	C25.451,349.855,0,376.352,0,405.322c0,59.733,112.448,106.667,256,106.667s256-46.933,256-106.667
	C512,377.888,489.877,353.29,448,333.855z"/>
<path style="fill:#FFC107;" d="M256,426.656c-69.18,1.37-126.426-53.491-128-122.667c0.029-25.97,8.597-51.209,24.384-71.829
	c3.509-4.732,10.19-5.722,14.922-2.213c2.473,1.834,4.033,4.648,4.278,7.717c2.374,45.252,39.118,81.086,84.416,82.325
	c45.322-1.206,82.103-37.049,84.48-82.325c0.47-5.872,5.611-10.252,11.483-9.782c3.069,0.245,5.883,1.805,7.717,4.278
	c15.767,20.627,24.312,45.867,24.32,71.829C382.426,373.164,325.18,428.026,256,426.656z"/>
<g>
</g>
<g>
</g>
<g>
</g>
<g>
</g>
<g>
</g>
<g>
</g>
<g>
</g>
<g>
</g>
<g>
</g>
<g>
</g>
<g>
</g>
<g>
</g>
<g>
</g>
<g>
</g>
<g>
</g>
</svg>
