<?xml version="1.0" encoding="iso-8859-1"?>
<!-- Generator: Adobe Illustrator 19.0.0, SVG Export Plug-In . SVG Version: 6.00 Build 0)  -->
<svg version="1.1" id="Capa_1" xmlns="http://www.w3.org/2000/svg" xmlns:xlink="http://www.w3.org/1999/xlink" x="0px" y="0px"
	 viewBox="0 0 512 512" style="enable-background:new 0 0 512 512;" xml:space="preserve">
<g>
	<g>
		<polygon points="268.536,357.208 200.007,405.172 217.069,512 274.792,463.712 		"/>
	</g>
</g>
<g>
	<g>
		<polygon points="146.486,260.271 94.376,225.575 115.471,331.237 163.259,365.28 		"/>
	</g>
</g>
<g>
	<g>
		<polygon points="259.872,209.685 176.678,259.115 194.747,372.239 266.47,322.039 		"/>
	</g>
</g>
<g>
	<g>
		<polygon points="251.334,64.311 152.723,109.134 171.588,227.246 257.891,175.968 		"/>
	</g>
</g>
<g>
	<g>
		<polygon points="170.145,0 73.997,43.704 137.231,83.225 233.38,39.521 		"/>
	</g>
</g>
<g>
	<g>
		<polygon points="169.896,406.837 124.044,374.174 143.856,473.405 185.666,505.566 		"/>
	</g>
</g>
<g>
	<g>
		<polygon points="387.071,193.848 334.457,224.153 377.326,244.451 430.505,207.231 		"/>
	</g>
</g>
<g>
	<g>
		<polygon points="297.398,337.007 303.433,439.75 361.519,391.158 363.275,290.9 		"/>
	</g>
</g>
<g>
	<g>
		<polygon points="302.832,242.368 292.2,248.492 295.334,301.838 349.041,264.248 		"/>
	</g>
</g>
<g>
	<g>
		<polygon points="122.375,109.314 63.862,72.744 86.076,184.012 140.045,219.944 		"/>
	</g>
</g>
<g>
	<g>
		<polygon points="393.649,269.642 391.967,365.686 444.829,321.464 448.138,231.504 		"/>
	</g>
</g>
<g>
</g>
<g>
</g>
<g>
</g>
<g>
</g>
<g>
</g>
<g>
</g>
<g>
</g>
<g>
</g>
<g>
</g>
<g>
</g>
<g>
</g>
<g>
</g>
<g>
</g>
<g>
</g>
<g>
</g>
</svg>
